<svg width="14" height="14" viewBox="0 0 14 14" fill="none" xmlns="http://www.w3.org/2000/svg">
<g clip-path="url(#clip0_11439_2082)">
<path fill-rule="evenodd" clip-rule="evenodd" d="M2.91225 2.362C3.17225 2.094 3.31525 1.736 3.31225 1.364C3.29882 1.00292 3.14796 0.660606 2.89052 0.407065C2.63307 0.153525 2.28849 0.00791031 1.92725 0C1.56506 0.00823195 1.2195 0.153628 0.960371 0.406813C0.701246 0.659999 0.547877 1.0021 0.53125 1.364C0.536632 1.73557 0.684468 2.09089 0.944241 2.35662C1.20402 2.62235 1.5559 2.7782 1.92725 2.792C2.29924 2.78326 2.65294 2.62885 2.91225 2.362ZM1.66925 4.63C1.08225 4.617 0.68225 4.608 0.68225 5.326V13.318C0.68225 14.021 1.06425 14.007 1.61425 13.986C1.71425 13.9813 1.81892 13.9787 1.92825 13.978C2.03825 13.9787 2.14292 13.9813 2.24225 13.986C2.79025 14.006 3.16425 14.021 3.16425 13.318V5.327C3.16425 4.609 2.77225 4.617 2.18825 4.631C2.01527 4.63508 1.84223 4.63408 1.66925 4.63ZM5.75325 4.645C5.48725 4.698 5.31625 4.868 5.31625 5.326V13.318C5.31625 14.021 5.68325 14.007 6.23425 13.986C6.33425 13.9813 6.44025 13.9787 6.55225 13.978C6.66425 13.9787 6.77058 13.9813 6.87125 13.986C7.42525 14.006 7.79925 14.021 7.79925 13.318V9.056C7.77793 8.83814 7.80314 8.61824 7.87322 8.41086C7.9433 8.20348 8.05665 8.01336 8.20576 7.8531C8.35486 7.69284 8.53633 7.56609 8.73812 7.48125C8.93991 7.39641 9.15742 7.35543 9.37625 7.361C9.59614 7.34784 9.81628 7.38219 10.0217 7.46171C10.2271 7.54123 10.413 7.66407 10.5667 7.82186C10.7204 7.97965 10.8384 8.16869 10.9125 8.37613C10.9866 8.58356 11.0152 8.80453 10.9963 9.024V13.285C10.9963 13.989 11.3622 13.975 11.9132 13.954C12.0132 13.9493 12.1193 13.9467 12.2313 13.946C12.3433 13.9467 12.4496 13.9493 12.5503 13.954C13.1013 13.974 13.4673 13.989 13.4673 13.286V7.83C13.4877 7.38205 13.4137 6.93481 13.25 6.51735C13.0863 6.0999 12.8365 5.72158 12.5169 5.40702C12.1973 5.09245 11.8151 4.84867 11.3952 4.69154C10.9752 4.53441 10.5268 4.46744 10.0793 4.495C9.62337 4.45314 9.16437 4.5292 8.74636 4.71588C8.32835 4.90256 7.96536 5.19358 7.69225 5.561C7.70325 5.167 7.57525 4.645 7.25625 4.645C7.16425 4.645 7.02325 4.64 6.86325 4.635C6.46325 4.623 5.94325 4.607 5.75325 4.645Z" fill="black"/>
</g>
<defs>
<clipPath id="clip0_11439_2082">
<rect width="14" height="14" fill="white"/>
</clipPath>
</defs>
</svg>
