<svg width="9" height="14" viewBox="0 0 9 14" fill="none" xmlns="http://www.w3.org/2000/svg">
<path fill-rule="evenodd" clip-rule="evenodd" d="M8.6564 6.24365C8.87641 6.44084 9 6.70825 9 6.98708C9 7.26591 8.87641 7.53332 8.6564 7.73051L2.01766 13.679C1.90941 13.7794 1.77991 13.8595 1.63673 13.9146C1.49356 13.9697 1.33956 13.9987 1.18374 14C1.02792 14.0012 0.873388 13.9746 0.729164 13.9217C0.58494 13.8688 0.45391 13.7907 0.343723 13.692C0.233536 13.5933 0.146396 13.4759 0.0873895 13.3467C0.0283827 13.2174 -0.00130975 13.079 4.43096e-05 12.9393C0.00139836 12.7997 0.0337721 12.6617 0.0952764 12.5334C0.156781 12.4052 0.246184 12.2891 0.358269 12.1921L6.16732 6.98708L0.358269 1.78203C0.144498 1.58371 0.0262117 1.31809 0.0288856 1.04239C0.0315594 0.766681 0.15498 0.502946 0.372564 0.307984C0.590149 0.113023 0.884489 0.00243556 1.19219 3.97504e-05C1.49989 -0.00235606 1.79633 0.103632 2.01766 0.295175L8.6564 6.24365Z" fill="white"/>
</svg>
